<?xml version="1.0" standalone="no"?>
<!DOCTYPE svg PUBLIC "-//W3C//DTD SVG 20010904//EN"
 "http://www.w3.org/TR/2001/REC-SVG-20010904/DTD/svg10.dtd">
<svg version="1.0" xmlns="http://www.w3.org/2000/svg"
 width="1854.000000pt" height="1854.000000pt" viewBox="0 0 1854.000000 1854.000000"
 preserveAspectRatio="xMidYMid meet">
<metadata>
Created by potrace 1.14, written by Peter Selinger 2001-2017
</metadata>
<g transform="translate(0.000000,1854.000000) scale(0.100000,-0.100000)"
fill="#000000" stroke="none">
<path d="M12273 10917 c-68 -21 -153 -79 -153 -105 0 -5 -7 -15 -15 -22 -8 -7
-13 -16 -10 -20 3 -5 1 -11 -3 -14 -9 -5 -8 -106 1 -136 8 -28 21 -54 36 -73
65 -80 123 -111 206 -110 74 0 115 6 115 16 0 4 6 7 13 7 22 0 95 73 117 118
68 138 -14 302 -170 338 -48 11 -103 11 -137 1z"/>
<path d="M6020 10705 c0 -4 22 -53 50 -110 27 -57 51 -115 54 -129 3 -14 8
-31 13 -38 11 -18 12 -507 1 -514 -4 -3 -6 -9 -3 -14 11 -17 -18 -116 -46
-160 -34 -53 -48 -64 -160 -123 l-84 -45 -25 20 c-14 11 -38 32 -55 46 -91 81
-114 83 -240 16 -110 -58 -208 -94 -254 -94 -36 0 -58 20 -134 122 -55 74 -96
108 -133 108 -35 0 -133 -53 -179 -97 -8 -7 -17 -13 -21 -13 -7 0 -157 -153
-179 -182 -18 -24 -35 -68 -35 -93 0 -15 19 -43 53 -77 121 -124 274 -195 502
-235 73 -12 262 -11 320 3 85 20 84 19 148 47 31 14 57 24 57 21 0 -3 12 4 26
15 15 12 31 21 36 21 24 0 172 113 249 189 79 80 180 211 162 211 -4 0 -3 4 2
8 26 19 68 146 90 272 14 77 14 340 1 395 -19 80 -42 156 -66 210 -34 80 -81
165 -92 165 -4 0 -8 6 -8 13 -1 12 -50 54 -50 42z"/>
<path d="M9244 10661 c-3 -3 -17 -6 -32 -8 -15 -2 -41 -5 -58 -8 l-31 -5 1
-400 c1 -220 -3 -400 -7 -400 -5 0 -5 -5 -1 -12 4 -7 8 -179 8 -383 l1 -370
295 1 c328 1 391 6 531 38 168 40 302 107 387 195 45 47 100 132 117 181 1 3
5 14 9 25 18 48 25 72 30 105 3 19 8 49 12 65 16 80 5 387 -16 435 -1 3 -2 8
-1 12 1 9 -24 69 -55 133 -39 82 -159 204 -234 238 -8 4 -30 16 -49 28 -80 48
-245 96 -401 115 -25 3 -58 8 -75 10 -16 3 -36 5 -42 4 -7 0 -21 0 -30 1 -118
3 -355 3 -359 0z m532 -366 c71 -17 154 -53 189 -83 85 -71 130 -201 128 -367
-1 -107 -15 -170 -55 -245 -30 -57 -81 -114 -92 -103 -3 4 -6 1 -6 -5 0 -7 -7
-12 -15 -12 -8 0 -15 -4 -15 -8 0 -10 -107 -41 -165 -49 -36 -4 -166 -7 -206
-4 -14 1 -16 41 -13 399 3 420 6 480 26 494 17 12 137 3 224 -17z"/>
<path d="M10856 10655 c-26 -19 -32 -89 -42 -435 -13 -446 -7 -932 11 -1065 3
-16 6 -42 7 -58 l2 -27 465 2 466 3 0 167 c0 106 -3 169 -10 171 -5 2 -115 3
-243 3 -146 -1 -236 3 -240 9 -4 6 -8 28 -8 50 -3 61 -4 118 -4 135 0 8 -2 74
-5 145 -3 72 -7 183 -9 247 -1 65 -5 120 -8 124 -4 3 -3 16 2 29 5 13 6 26 3
29 -3 3 -7 68 -9 143 -4 221 -8 313 -14 314 -3 1 -43 3 -90 4 -76 3 -155 11
-155 15 0 8 -107 3 -119 -5z"/>
<path d="M15750 10591 c-25 -36 -47 -68 -50 -71 -3 -3 -19 -25 -35 -50 -16
-25 -32 -47 -35 -50 -3 -3 -18 -25 -35 -50 -16 -25 -43 -64 -60 -86 -16 -23
-37 -52 -45 -64 -92 -134 -168 -223 -183 -217 -17 6 -19 48 -21 370 0 147 -3
268 -6 268 -25 6 -413 3 -417 -3 -8 -15 -9 -148 0 -148 4 0 5 -5 1 -11 -10
-16 -11 -69 -2 -96 4 -13 4 -23 0 -23 -9 0 -7 -214 2 -229 4 -6 4 -11 -1 -11
-9 0 -9 -281 1 -305 3 -8 2 -15 -2 -15 -8 0 -7 -243 2 -265 3 -8 2 -15 -2 -15
-9 0 -7 -94 2 -109 4 -6 4 -11 -1 -11 -4 0 -8 -74 -8 -165 l0 -165 198 0 c108
0 198 3 198 8 6 33 16 135 24 231 3 41 9 79 12 84 4 6 1 7 -7 2 -9 -6 -11 -4
-5 5 5 8 9 77 10 155 1 135 6 165 25 165 9 0 84 -86 125 -144 11 -15 32 -42
47 -59 15 -18 28 -35 28 -39 0 -8 22 -36 48 -63 6 -8 12 -17 12 -20 0 -4 10
-20 23 -35 12 -15 30 -38 39 -51 9 -13 34 -47 55 -76 21 -28 56 -77 78 -108
l40 -56 225 2 c124 1 236 6 249 10 l23 9 -23 37 c-19 31 -88 124 -142 193 -7
8 -30 39 -52 68 -21 28 -43 52 -47 52 -4 0 -8 5 -8 11 0 6 -6 16 -12 23 -7 7
-24 27 -38 45 -14 18 -29 38 -35 45 -5 6 -26 32 -45 56 -19 25 -38 47 -42 48
-4 2 -8 8 -8 14 0 5 -6 15 -12 23 -15 15 -38 45 -53 67 -72 107 -74 112 -64
125 6 7 9 13 5 13 -3 0 1 8 9 18 9 9 43 55 77 102 34 47 65 87 68 90 3 3 18
23 35 45 16 22 31 42 34 45 4 3 28 34 55 70 27 36 56 71 65 78 8 6 11 12 6 12
-5 0 0 8 11 18 10 10 28 31 39 46 11 16 34 47 50 70 42 57 71 114 62 123 -11
10 -26 12 -182 19 -77 3 -167 7 -200 8 l-61 3 -44 -66z"/>
<path d="M2326 10643 c-3 -3 -20 -7 -38 -8 -18 -2 -36 -3 -40 -4 -6 -1 -4 -46
2 -46 1 0 3 -9 4 -20 2 -11 11 -49 21 -85 9 -36 19 -72 21 -80 2 -8 17 -67 35
-130 17 -63 40 -149 50 -190 27 -104 24 -92 59 -219 17 -62 33 -120 35 -130 8
-36 136 -498 157 -566 28 -91 29 -91 240 -94 l157 -2 30 99 c17 54 34 113 37
131 4 17 11 34 15 37 5 3 7 10 4 15 -4 5 -3 15 2 22 4 6 8 17 10 22 10 47 18
76 27 97 4 9 9 22 10 30 1 7 24 81 51 163 27 83 50 153 51 158 1 4 3 9 4 12 3
6 5 12 15 43 15 47 28 23 81 -153 15 -49 29 -96 30 -103 1 -6 14 -49 28 -95
21 -69 37 -125 41 -147 1 -3 12 -39 24 -80 13 -41 24 -79 25 -85 1 -5 5 -19 9
-30 3 -11 9 -32 12 -47 12 -61 16 -83 19 -85 6 -7 367 -3 379 4 8 4 24 46 36
93 12 47 26 96 31 110 12 35 40 132 44 150 2 8 6 22 9 30 3 8 20 67 37 130 18
63 36 126 41 140 5 14 10 34 12 45 2 11 6 27 9 35 7 18 37 127 43 155 3 11 14
47 24 80 11 33 22 72 25 85 3 14 10 41 16 60 11 34 15 50 24 88 13 54 70 263
81 297 7 22 10 43 6 48 -12 12 -87 19 -241 20 -89 1 -146 -2 -149 -8 -2 -5 -7
-21 -12 -33 -15 -40 -124 -480 -154 -622 -2 -8 -4 -16 -5 -17 -2 -2 -4 -7 -5
-13 -1 -5 -3 -11 -5 -12 -1 -2 -3 -11 -5 -20 -13 -67 -46 -125 -66 -113 -15
10 -45 88 -84 221 -21 71 -40 136 -43 144 -3 8 -7 22 -8 30 -2 8 -10 40 -19
70 -9 30 -23 80 -31 110 -34 129 -67 211 -93 238 -28 27 -28 27 -169 27 -80 0
-145 -5 -150 -10 -5 -6 -19 -48 -31 -95 -12 -47 -25 -92 -28 -100 -3 -8 -7
-19 -8 -25 -2 -5 -8 -30 -16 -55 -7 -25 -13 -50 -15 -56 -1 -6 -9 -36 -17 -65
-9 -30 -18 -66 -21 -81 -2 -15 -8 -33 -13 -40 -4 -7 -9 -22 -11 -33 -4 -24 -5
-27 -21 -85 -23 -84 -53 -165 -68 -182 -14 -15 -44 -15 -41 0 1 4 -1 14 -5 22
-7 20 -26 82 -32 106 -3 10 -14 51 -25 89 -12 39 -23 77 -25 85 -1 8 -8 35
-15 60 -7 25 -14 52 -15 60 -2 8 -8 30 -14 49 -6 18 -10 36 -9 40 0 3 -1 8 -2
11 -3 8 -11 44 -15 65 -2 11 -4 20 -5 20 -1 0 -3 7 -5 15 -34 135 -48 186 -50
188 -2 2 -63 6 -137 8 -73 3 -138 7 -145 9 -6 2 -14 1 -17 -2z"/>
<path d="M6482 9858 l0 -788 184 0 184 0 1 28 c1 15 3 63 5 107 9 201 14 284
20 330 3 28 6 58 7 68 2 33 36 17 76 -35 33 -45 191 -303 191 -313 0 -2 23
-42 51 -89 l50 -86 67 -1 c37 -1 131 -3 210 -4 78 -2 145 1 147 6 3 4 -6 26
-20 48 -14 23 -25 45 -25 51 0 5 -4 10 -10 10 -5 0 -10 7 -10 15 0 8 -4 15
-10 15 -5 0 -10 5 -10 10 0 6 -47 84 -105 174 -58 90 -105 168 -105 174 0 6
-4 12 -9 14 -4 2 -20 25 -34 52 l-26 49 63 41 c34 24 70 45 79 49 9 3 17 11
17 17 0 5 6 10 14 10 20 0 105 95 123 138 42 97 55 264 29 360 -16 58 -51 123
-87 162 -25 26 -118 97 -131 99 -4 1 -24 9 -45 17 -20 9 -45 18 -55 20 -10 2
-28 6 -40 9 -84 20 -208 27 -514 29 l-281 2 -1 -788z m613 457 c44 -11 112
-70 136 -117 64 -125 -27 -269 -184 -294 -65 -10 -151 -4 -167 12 -13 13 -15
72 -6 200 10 153 16 198 25 204 13 7 161 4 196 -5z"/>
<path d="M7959 10630 c-1 -15 -3 -81 -13 -420 -12 -405 -17 -1096 -8 -1108 15
-22 106 -27 537 -27 l410 0 -2 65 c-9 261 -11 271 -63 268 -14 0 -83 3 -155 7
-170 10 -233 13 -272 14 l-32 1 2 81 c2 44 0 82 -3 84 -4 2 -4 26 0 54 3 27 3
58 -1 70 -5 11 -4 23 2 26 5 4 6 11 3 17 -4 6 -8 204 -10 441 -2 236 -6 432
-9 436 -4 3 -92 6 -196 6 -162 0 -189 -2 -190 -15z"/>
<path d="M12944 10639 c-2 -4 -7 -290 -10 -636 -7 -920 -13 -1094 -34 -1170
-30 -109 -182 -142 -266 -58 -50 50 -59 145 -68 762 -3 139 -7 257 -10 262 -4
5 -2 12 4 16 6 4 7 11 3 17 -3 7 -7 96 -8 200 -1 104 -5 191 -8 194 -4 4 -187
6 -378 4 l-45 0 1 -737 1 -738 41 -82 c23 -45 51 -96 62 -112 12 -16 21 -34
21 -41 0 -24 140 -147 205 -180 75 -38 71 -37 138 -48 73 -13 335 -8 382 8 79
26 177 109 234 199 18 28 34 56 35 63 2 7 9 27 15 43 7 17 15 39 17 50 3 11 6
25 8 30 3 12 15 71 20 107 21 134 26 493 13 1042 -5 232 1 288 31 264 8 -7 56
-67 104 -133 49 -66 95 -127 101 -136 7 -8 17 -23 22 -31 6 -9 59 -87 120
-174 60 -88 115 -168 121 -179 12 -22 117 -173 134 -192 6 -7 7 -13 3 -13 -4
0 -3 -4 2 -8 12 -9 55 -69 55 -77 0 -3 14 -24 32 -46 l31 -39 189 0 c172 0
188 1 189 18 3 56 15 364 24 627 12 330 13 925 1 926 -6 1 -98 2 -204 3 l-194
1 4 -37 c2 -21 0 -38 -4 -38 -4 0 -4 -10 1 -22 5 -13 5 -33 0 -45 -5 -13 -5
-23 -1 -23 4 0 8 -191 9 -425 2 -332 0 -425 -10 -425 -6 0 -26 22 -44 48 -18
26 -41 58 -52 72 -11 14 -54 72 -95 130 -41 58 -80 110 -86 117 -5 7 -10 16
-10 22 0 5 -4 11 -8 13 -4 2 -33 39 -63 83 -29 44 -57 82 -60 85 -3 3 -30 41
-59 85 -30 44 -57 82 -60 85 -3 3 -38 55 -79 115 -41 61 -84 121 -95 135 l-21
25 -198 1 c-109 0 -200 -3 -203 -7z"/>
<path d="M11655 8823 c-39 -10 -123 -74 -138 -105 -22 -44 -15 -133 12 -162
11 -12 46 -34 78 -50 77 -39 123 -75 123 -95 0 -51 -96 -71 -165 -35 -49 25
-61 22 -80 -22 -18 -44 -13 -56 35 -83 51 -28 149 -35 211 -15 92 30 153 126
130 203 -13 45 -61 96 -111 118 -74 32 -97 47 -110 66 -11 18 -9 24 13 42 18
17 36 21 68 20 24 -2 58 3 76 11 30 12 32 15 22 42 -7 22 -22 34 -54 46 -51
20 -83 25 -110 19z"/>
<path d="M6803 8538 l0 -269 136 2 c149 1 181 8 181 38 0 28 -25 38 -104 40
-89 3 -106 14 -106 68 0 52 15 62 101 67 44 3 66 9 75 21 27 37 -8 56 -110 60
-55 2 -66 13 -66 66 0 50 18 62 107 65 82 3 110 17 99 51 -12 37 -61 47 -272
57 l-42 2 1 -268z"/>
<path d="M9337 8804 c-1 -1 -20 -4 -43 -6 -54 -7 -64 -14 -64 -47 0 -29 33
-61 63 -61 43 0 56 -37 63 -185 11 -213 17 -238 61 -233 40 4 51 36 58 168 10
212 16 238 54 246 39 8 55 18 68 44 15 30 2 57 -31 66 -20 5 -224 12 -229 8z"/>
<path d="M9968 8805 c-1 -2 -25 -4 -53 -6 -62 -3 -91 -17 -143 -68 -82 -81
-106 -183 -71 -296 54 -176 242 -246 414 -153 46 25 82 65 109 123 21 43 25
64 22 121 -5 95 -37 175 -88 218 -22 19 -43 35 -47 34 -3 0 -8 1 -11 2 -11 4
-37 9 -70 15 -19 3 -40 8 -47 10 -6 2 -13 2 -15 0z m40 -115 c84 -56 116 -130
93 -213 -28 -100 -144 -153 -216 -99 -32 24 -73 101 -78 145 -7 58 42 137 108
178 39 24 42 24 93 -11z"/>
<path d="M10430 8802 c-35 -5 -48 -19 -50 -50 -15 -438 14 -503 229 -507 162
-3 200 19 227 130 15 66 28 363 17 405 -6 22 -35 26 -77 10 -30 -11 -42 -49
-51 -160 -19 -237 -36 -280 -111 -280 -40 0 -73 29 -86 74 -11 39 -13 73 -18
261 -4 109 -15 127 -80 117z"/>
<path d="M10995 8590 c7 -248 10 -287 26 -317 16 -29 75 -35 91 -10 8 12 18
87 21 149 2 40 13 44 31 13 28 -48 81 -131 90 -141 40 -40 90 -51 126 -29 11
7 4 65 -9 75 -4 3 -17 21 -29 40 -11 20 -30 47 -42 59 -21 25 -27 47 -10 36 6
-3 10 -2 10 4 0 5 13 18 29 27 41 24 60 70 58 142 -4 126 -71 162 -307 166
l-92 1 7 -215z m237 78 c28 -53 -1 -128 -50 -128 -45 0 -55 13 -55 71 1 59 17
79 65 79 18 0 31 -8 40 -22z"/>
<path d="M3636 8770 c-53 -47 -77 -86 -81 -129 -3 -34 2 -44 34 -74 20 -19 64
-49 98 -66 34 -17 71 -41 83 -53 24 -26 26 -62 5 -80 -9 -7 -21 -18 -28 -24
-7 -5 -35 -11 -64 -13 -43 -2 -54 1 -65 18 -16 26 -65 29 -71 4 -7 -32 20 -70
55 -78 63 -15 129 -20 158 -12 84 24 134 101 129 202 -3 42 -6 46 -44 65 -23
11 -50 20 -61 20 -38 0 -112 56 -122 92 -15 57 -3 73 59 74 102 3 114 4 127
12 17 12 5 39 -21 47 -40 13 -52 15 -103 21 -47 5 -54 3 -88 -26z"/>
<path d="M6602 8784 c-19 -13 -100 -158 -102 -182 -2 -36 -61 -173 -72 -170
-5 2 -22 41 -38 88 -41 118 -97 227 -123 242 -25 14 -97 18 -97 5 0 -4 10 -29
21 -55 55 -120 70 -153 108 -244 23 -53 41 -101 41 -106 0 -4 14 -27 31 -51
27 -36 36 -42 57 -36 26 6 82 61 82 80 0 6 11 27 25 48 14 20 23 37 20 37 -8
0 37 83 50 92 6 4 7 8 3 8 -6 0 58 167 72 185 8 10 13 40 11 63 -1 17 -62 15
-89 -4z"/>
<path d="M7264 8768 c-8 -36 -13 -465 -6 -486 3 -10 36 -12 134 -11 131 1 158
9 158 44 0 13 -42 33 -70 34 -8 0 -38 1 -66 1 l-52 2 0 181 c0 168 -5 237 -18
259 -3 4 -20 8 -39 8 -30 0 -34 -4 -41 -32z"/>
<path d="M7752 8789 c-55 -21 -92 -87 -92 -165 0 -41 5 -51 36 -80 20 -19 39
-32 43 -29 5 2 17 -2 27 -10 10 -8 27 -15 36 -15 31 0 88 -59 88 -90 0 -26
-21 -59 -38 -61 -4 0 -16 -2 -27 -5 -24 -5 -73 14 -99 38 -27 25 -43 23 -62
-8 -23 -34 -10 -72 35 -98 69 -40 223 -21 269 34 28 32 50 93 45 124 -11 73
-88 151 -167 170 -37 9 -88 60 -80 79 8 21 48 35 119 41 72 7 101 31 64 56
-12 8 -29 16 -38 18 -35 9 -137 9 -159 1z"/>
<path d="M8517 8782 c-48 -33 -57 -54 -52 -122 3 -34 6 -64 7 -68 3 -13 -14
-72 -20 -72 -4 0 -22 -23 -40 -50 -26 -39 -33 -61 -34 -99 0 -83 33 -118 116
-124 48 -4 137 10 146 22 3 4 20 14 39 23 32 15 36 15 77 -8 45 -25 98 -32
110 -13 3 6 -9 31 -27 56 l-32 46 21 41 c12 23 22 47 22 54 0 21 -41 30 -69
15 -37 -19 -74 -16 -104 7 l-26 20 35 64 c53 100 46 161 -22 196 -64 31 -113
35 -147 12z m113 -77 c7 -8 9 -15 5 -15 -4 0 -3 -6 3 -12 15 -18 -11 -74 -37
-81 -23 -6 -61 33 -61 62 0 48 62 80 90 46z m-77 -236 c30 -16 74 -62 81 -86
14 -43 -100 -72 -134 -33 -23 27 -15 103 14 122 14 10 14 10 39 -3z"/>
<path d="M2588 8778 c-3 -7 -3 -71 -1 -143 2 -71 4 -184 6 -250 2 -69 7 -119
12 -119 6 1 66 5 135 8 151 9 174 17 178 69 2 25 9 40 20 44 26 10 30 21 22
65 -9 48 -22 58 -77 58 -32 0 -43 4 -48 19 -7 25 -34 35 -51 20 -18 -15 -18
-29 1 -29 24 0 90 -73 92 -101 2 -16 -9 -37 -30 -59 -48 -52 -67 -60 -105 -44
-50 21 -72 47 -77 93 -2 23 -9 57 -14 77 -8 27 -7 36 4 40 21 8 35 -4 28 -24
-5 -16 -4 -16 13 1 15 14 17 20 6 35 -20 29 -33 65 -34 97 0 17 -7 43 -15 58
-8 16 -12 32 -8 35 3 3 48 6 100 7 108 0 121 -7 116 -65 -3 -52 6 -80 28 -80
21 0 41 39 41 80 0 70 -80 102 -260 104 -36 1 -68 5 -71 9 -3 5 -8 3 -11 -5z
m61 -450 c11 -30 4 -40 -19 -28 -12 6 -16 17 -13 30 7 26 22 25 32 -2z"/>
<path d="M3129 8769 c-7 -4 -9 -14 -6 -23 4 -9 3 -16 -1 -16 -4 0 -6 -37 -4
-82 4 -107 4 -113 0 -176 -2 -28 0 -52 3 -52 4 0 3 -16 -1 -34 -4 -19 -5 -37
-2 -40 3 -3 5 -22 4 -42 l-1 -35 132 2 c133 2 157 8 157 39 0 21 -31 37 -95
46 -27 4 -52 8 -55 9 -27 9 -43 22 -55 45 -14 27 -13 30 14 56 32 30 40 32
116 41 119 13 101 57 -23 56 -42 -1 -83 3 -89 9 -21 17 -15 74 10 103 19 22
33 26 92 31 80 6 106 22 80 48 -19 18 -12 17 -157 20 -59 2 -113 -1 -119 -5z"/>
<path d="M4038 8765 c-37 -12 -43 -24 -26 -48 11 -14 32 -22 69 -26 16 -2 22
-46 25 -191 5 -220 8 -229 61 -230 37 0 45 33 48 199 4 202 4 194 14 209 5 8
25 15 44 17 78 8 108 56 45 71 -51 11 -245 11 -280 -1z"/>
<path d="M4707 8765 c-21 -6 -33 -17 -35 -32 -3 -23 12 -32 73 -37 20 -2 38
-6 41 -8 2 -3 7 -29 10 -59 3 -30 8 -57 10 -61 2 -4 0 -9 -6 -13 -6 -4 -7 -11
-4 -17 10 -16 11 -98 1 -98 -5 0 -5 -5 -1 -12 4 -7 9 -38 10 -70 2 -64 15 -88
48 -88 47 0 48 7 53 185 5 227 8 236 69 249 55 12 77 54 34 65 -34 9 -273 6
-303 -4z"/>
<path d="M5157 8746 c1 -17 2 -31 3 -31 1 0 3 -79 5 -175 5 -225 12 -270 44
-270 35 0 46 30 50 131 1 14 7 33 14 43 12 17 15 16 45 -9 18 -15 32 -31 32
-36 0 -21 62 -107 85 -117 26 -12 105 -17 105 -6 0 3 -27 44 -61 92 -36 53
-58 93 -54 102 4 8 25 29 48 45 22 17 50 45 61 64 17 30 18 37 6 70 -22 62
-53 100 -90 113 -19 6 -93 12 -165 13 l-130 1 2 -30z m235 -60 c45 -13 49 -82
8 -129 -33 -38 -75 -53 -105 -37 -28 15 -37 37 -37 85 0 82 42 107 134 81z"/>
<path d="M5824 8768 c-3 -5 -9 -6 -14 -3 -15 9 -39 -25 -57 -83 -10 -31 -20
-59 -23 -62 -3 -3 -6 -13 -8 -24 -2 -10 -8 -30 -14 -45 -6 -14 -12 -30 -12
-36 -1 -5 -16 -57 -35 -113 -18 -57 -30 -110 -27 -118 7 -17 55 -18 77 -1 9 7
23 27 33 44 19 38 55 50 137 47 72 -2 97 -10 104 -34 14 -43 46 -70 83 -70 20
0 43 4 51 9 16 10 16 12 -59 221 -23 63 -48 135 -56 160 -18 51 -54 109 -69
111 -45 5 -107 4 -111 -3z m90 -118 c31 -150 36 -193 25 -206 -7 -9 -32 -14
-70 -14 -87 0 -91 17 -42 160 18 52 30 96 28 98 -2 2 2 10 8 17 10 11 15 10
29 -8 9 -12 19 -33 22 -47z"/>
<path d="M2823 8032 l-233 -2 -1 -23 c-1 -26 -1 -285 0 -308 1 -14 39 -16 364
-18 199 0 580 -3 847 -6 267 -3 733 -7 1035 -10 1090 -12 1792 -17 1823 -16 9
1 12 46 12 191 l0 191 -245 -3 c-135 -2 -245 -1 -245 2 0 3 -54 3 -120 0 -66
-3 -120 -3 -120 0 0 3 -162 3 -360 0 -198 -3 -360 -3 -360 0 0 3 -54 3 -120 0
-66 -3 -120 -3 -120 0 0 3 -162 3 -360 0 -198 -3 -360 -3 -360 0 0 3 -54 3
-120 0 -66 -3 -120 -3 -120 0 0 3 -162 3 -360 0 -198 -3 -360 -3 -360 0 0 3
-54 3 -120 0 -66 -3 -121 -3 -123 0 -1 3 -107 4 -234 2z"/>
<path d="M8598 7923 c-3 -7 -3 -169 1 -215 1 -25 21 -23 21 2 0 11 5 20 11 20
5 0 8 4 5 8 -2 4 -1 14 3 21 6 9 13 4 26 -16 25 -39 85 -94 96 -87 5 3 -4 24
-19 47 -40 57 -42 68 -21 96 30 38 22 43 -23 18 -39 -21 -77 -25 -79 -9 -1 10
-9 95 -11 110 -2 14 -5 15 -10 5z"/>
<path d="M10517 7832 c2 -93 12 -142 14 -66 0 21 1 66 2 100 1 35 -2 61 -8 61
-6 0 -9 -37 -8 -95z"/>
<path d="M8164 7902 c-16 -25 -9 -155 12 -224 5 -18 23 -25 25 -10 0 4 2 14 4
22 18 74 25 162 16 198 -9 32 -41 41 -57 14z"/>
<path d="M8380 7863 c-8 -4 -29 -20 -46 -37 -26 -27 -30 -38 -29 -83 0 -40 5
-56 20 -68 44 -33 50 -18 19 52 -13 29 -13 36 1 62 8 16 19 33 25 36 9 6 35
46 28 44 -2 0 -10 -3 -18 -6z"/>
<path d="M9610 7859 c0 -5 11 -20 23 -32 48 -44 53 -82 20 -134 -11 -16 -11
-23 -2 -29 14 -8 48 33 50 61 0 11 2 29 4 39 2 10 -3 29 -12 42 -17 26 -83 69
-83 53z"/>
<path d="M10330 7863 c0 -4 13 -20 28 -34 51 -49 58 -122 14 -155 -16 -12 -15
-13 5 -14 28 0 53 25 54 56 1 13 2 30 2 37 2 32 -17 79 -36 91 -30 19 -67 29
-67 19z"/>
<path d="M10995 7858 c-11 -6 -34 -26 -51 -44 -29 -31 -34 -51 -25 -106 2 -17
54 -41 94 -44 23 -1 32 0 20 2 -13 3 -23 10 -23 16 0 6 -3 9 -6 5 -14 -14 -38
27 -38 65 0 33 6 46 32 69 18 16 40 29 49 29 9 0 13 3 9 7 -12 12 -40 12 -61
1z"/>
<path d="M11200 7853 c-58 -41 -84 -86 -66 -117 15 -25 37 -48 66 -69 32 -22
103 -22 125 -1 21 22 5 40 -22 25 -44 -23 -73 -21 -90 6 -23 35 -26 93 -6 115
29 32 83 17 83 -23 0 -25 28 -31 40 -9 15 28 -3 58 -45 76 -44 18 -55 18 -85
-3z"/>
<path d="M11435 7857 c-30 -16 -17 -62 30 -108 29 -28 45 -53 47 -73 3 -28 4
-29 21 -12 20 21 22 69 3 85 -8 7 -24 14 -37 16 -54 11 -49 46 9 74 17 9 32
19 32 23 0 9 -87 6 -105 -5z"/>
<path d="M10682 7844 c-12 -8 -22 -12 -22 -7 0 4 -9 -5 -20 -22 -21 -31 -20
-87 1 -127 12 -22 61 -35 117 -32 60 3 69 15 70 82 1 92 -3 99 -59 111 -63 14
-60 14 -87 -5z m79 -21 c17 -10 32 -27 35 -38 6 -25 -8 -66 -29 -84 -21 -17
-77 -17 -88 0 -13 20 -8 97 8 119 17 25 36 25 74 3z"/>
<path d="M8851 7819 c-43 -58 -4 -153 67 -165 18 -3 15 7 -9 33 -18 19 -22 33
-20 87 1 35 -2 67 -7 70 -5 3 -19 -8 -31 -25z"/>
<path d="M10243 7839 c-28 -10 -32 -49 -5 -49 11 0 26 8 36 19 22 24 2 43 -31
30z"/>
<path d="M7360 7837 c0 -19 33 -86 45 -91 10 -4 11 2 4 27 -8 28 -49 82 -49
64z"/>
<path d="M7751 7817 c-19 -50 -19 -85 0 -116 19 -32 45 -49 56 -37 3 3 1 12
-6 20 -13 15 -22 60 -23 119 -1 42 -14 49 -27 14z"/>
<path d="M7880 7831 c0 -5 6 -23 14 -41 12 -30 14 -32 24 -14 12 24 -2 64 -23
64 -8 0 -15 -4 -15 -9z"/>
<path d="M8443 7828 c1 -7 8 -19 15 -26 6 -7 13 -21 14 -30 0 -9 2 -24 3 -32
0 -8 -7 -27 -17 -42 -25 -36 -23 -48 9 -42 15 3 30 7 32 10 10 9 10 138 0 155
-11 21 -61 27 -56 7z"/>
<path d="M9004 7813 c10 -38 24 -52 35 -34 12 19 -2 55 -24 59 -15 3 -17 -1
-11 -25z"/>
<path d="M9408 7818 c-8 -13 -22 -40 -32 -60 -23 -51 -49 -50 -76 2 -24 46
-33 52 -19 12 5 -15 11 -64 12 -110 2 -45 7 -83 10 -85 16 -5 113 178 124 234
7 35 0 37 -19 7z"/>
<path d="M9524 7832 c-14 -8 -36 -82 -25 -82 5 0 6 -11 4 -23 -4 -18 4 -31 28
-52 39 -32 53 -16 18 21 -12 13 -19 24 -14 24 5 0 4 5 -2 11 -9 9 -7 21 5 48
9 20 20 38 25 39 10 5 -2 22 -16 22 -7 0 -17 -4 -23 -8z"/>
<path d="M9958 7835 c-4 -6 -8 -39 -10 -73 -1 -34 -5 -62 -8 -62 -3 0 -11 -9
-18 -20 -10 -17 -10 -20 5 -20 35 0 45 17 47 71 3 62 -6 119 -16 104z"/>
<path d="M7497 7815 c-26 -19 -14 -56 16 -51 31 4 44 30 24 50 -19 19 -17 19
-40 1z"/>
<path d="M7620 7800 c-7 -16 -9 -37 -6 -47 6 -15 8 -15 20 3 7 10 15 31 18 47
7 37 -16 36 -32 -3z"/>
<path d="M9799 7805 c-4 -5 -5 -17 -4 -25 2 -8 5 -28 8 -45 8 -47 16 -61 43
-73 29 -14 30 -9 6 26 -20 29 -39 75 -44 107 -2 11 -6 16 -9 10z"/>
<path d="M10227 7741 c-10 -40 4 -71 37 -80 40 -11 52 -4 31 19 -9 10 -20 31
-24 46 -9 34 -36 43 -44 15z"/>
<path d="M7550 7711 c0 -20 17 -31 37 -24 9 4 10 10 2 24 -13 25 -39 25 -39 0z"/>
<path d="M7891 7696 c-6 -7 -9 -21 -5 -29 9 -23 43 0 36 25 -5 21 -15 23 -31
4z"/>
</g>
</svg>
